<?xml version="1.0" standalone="no"?>
<!DOCTYPE svg PUBLIC "-//W3C//DTD SVG 20010904//EN"
 "http://www.w3.org/TR/2001/REC-SVG-20010904/DTD/svg10.dtd">
<svg version="1.0" xmlns="http://www.w3.org/2000/svg"
 width="76.000000pt" height="76.000000pt" viewBox="0 0 76.000000 76.000000"
 preserveAspectRatio="xMidYMid meet">
<metadata>
Created by potrace 1.14, written by Peter Selinger 2001-2017
</metadata>
<g transform="translate(0.000000,76.000000) scale(0.100000,-0.100000)"
fill="#000000" stroke="none">
<path d="M30 726 l0 -33 158 0 157 1 2 -79 c0 -44 1 -88 2 -97 1 -12 10 -16
31 -16 17 1 30 6 31 12 1 6 2 49 2 95 l2 85 145 1 c80 1 151 2 158 3 6 1 12
16 12 32 l0 30 -350 0 -350 0 0 -34z"/>
<path d="M30 595 c0 -27 4 -34 22 -37 l22 -3 0 -232 0 -232 136 -45 c74 -26
151 -46 171 -46 19 0 68 11 107 24 40 14 72 22 72 18 0 -4 4 -2 8 3 4 6 32 18
63 28 l56 17 1 223 c0 122 1 228 1 235 1 6 10 12 21 12 16 0 20 7 20 34 l0 34
-52 -2 -53 -1 -3 -245 -2 -246 -98 -32 c-54 -18 -100 -32 -103 -32 -3 0 -5 50
-5 110 1 61 -1 110 -4 111 -39 7 -60 4 -61 -10 0 -9 -1 -58 -2 -110 -1 -53 -6
-95 -12 -97 -5 -1 -50 12 -100 29 l-90 32 -5 245 -5 245 -52 2 -53 2 0 -34z"/>
<path d="M208 608 c-3 -19 -2 -346 1 -414 1 -15 9 -23 29 -27 15 -3 29 -3 31
-1 3 2 4 49 4 104 l-1 100 108 0 108 0 -1 -100 c0 -55 2 -102 5 -105 2 -3 18
-1 34 5 l29 10 -1 223 0 222 -32 1 c-23 1 -32 -4 -33 -15 0 -9 -2 -52 -2 -95
l-2 -80 -105 0 -105 -1 -2 90 c-1 50 -2 92 -2 95 -1 3 -14 7 -30 8 -23 2 -29
-2 -33 -20z"/>
</g>
</svg>
